<svg width="596" height="482" viewBox="0 0 596 482" fill="none" xmlns="http://www.w3.org/2000/svg">
<path d="M286.978 480.667L0 480.403V463.183V445.966L165.553 446.261C256.609 446.426 331.109 446.47 331.109 446.361C331.109 445.959 72.2464 361.499 18.4068 344.333C13.3078 342.706 8.967 340.909 8.75871 340.332C8.5525 339.759 10.6667 332.492 13.4557 324.187C18.2173 310.009 18.6797 309.107 21.0147 309.44C22.3811 309.632 38.0718 314.618 55.8808 320.519C112.961 339.43 241.518 381.274 302.233 400.704C315.937 405.088 327.378 408.446 327.657 408.167C327.938 407.888 324.481 404.944 319.978 401.626C315.472 398.31 304.689 389.956 296.015 383.063C274.397 365.885 243.226 341.367 199.376 307.045C187.695 297.903 166.376 281.12 152 269.75C137.625 258.379 111.82 237.975 94.6566 224.404C77.4933 210.834 62.5337 198.999 61.4131 198.105C59.4239 196.518 59.4697 196.362 63.2544 191.857C65.3894 189.313 69.9135 183.604 73.3066 179.163C76.6997 174.722 80.0428 171.106 80.7343 171.121C82.0695 171.152 88.7182 176.268 132.77 211.134C147.93 223.134 164.837 236.49 170.344 240.816C212.946 274.278 230.209 287.875 244.336 299.088C291.972 336.895 329.247 365.967 329.615 365.598C329.844 365.369 323.889 354.202 316.378 340.78C308.869 327.357 288.615 291.069 271.37 260.137C254.124 229.206 234.115 193.354 226.904 180.465C199.068 130.706 189.195 112.92 183.827 102.876C180.767 97.1479 176.272 88.8599 173.843 84.4545C168.909 75.5167 168.936 75.3896 176.522 71.6362C178.532 70.6426 184.304 67.4744 189.344 64.5979C194.387 61.7193 198.657 59.5468 198.832 59.7697C199.353 60.43 219.93 97.4332 238.154 130.475C247.473 147.374 264.597 178.07 276.209 198.691C287.821 219.312 304.987 250.008 314.354 266.907C335.412 304.889 350.411 331.411 352.205 333.842C353.761 335.945 353.754 334.862 352.005 291.381C351.428 277.061 350.484 252.455 349.907 236.704C349.33 220.953 348.393 197.753 347.828 185.152C347.262 172.55 346.31 149.586 345.714 134.12C345.116 118.654 344.187 96.1585 343.648 84.1296C343.106 72.1006 342.404 52.8856 342.086 41.4295C341.767 29.9734 341.236 16.5489 340.905 11.5957L340.305 2.59122L344.652 1.86009C352.086 0.606165 372.324 -0.52696 373.196 0.260388C373.653 0.670725 374.461 11.0396 374.994 23.3018C375.525 35.564 376.444 56.1392 377.033 69.0283C378.341 97.5936 379.831 133.987 381.253 172.133C381.841 187.884 382.78 211.788 383.34 225.248C383.901 238.708 384.844 263.782 385.44 280.966C387.192 331.561 389.002 349.072 394.401 367.647C405.7 406.527 433.605 434.516 470.921 444.399C491.438 449.834 515.64 452.119 562.062 453.004L595.08 453.633L595.647 466.759C595.959 473.977 595.997 480.236 595.732 480.667C595.466 481.096 590.456 481.332 584.601 481.19C578.748 481.048 444.816 480.813 286.978 480.667ZM588.059 466.868V460.619L566.907 460.602C520.387 460.567 479.126 455.972 458.382 448.517C439.304 441.66 419.785 427.236 407.104 410.629C399.4 400.537 390.197 381.024 386.477 366.887C380.962 345.939 379.751 330.996 376.512 243.994C371.361 105.682 367.804 18.611 367.037 12.1269L366.529 7.8173L357.437 8.35882C352.436 8.65459 348.22 8.99832 348.07 9.11913C347.768 9.36492 349.372 51.5588 350.94 84.6503C351.498 96.3918 352.438 118.185 353.025 133.078C355.319 191.013 356.254 215.356 357.235 242.432C358.497 277.332 361.128 340.805 361.919 355.431L362.511 366.366L356.6 356.473C344.625 336.424 335.756 321.023 323.012 298.151C315.833 285.261 305.366 266.515 299.752 256.492C294.137 246.469 284.851 229.83 279.119 219.52C273.384 209.209 264.347 193.042 259.031 183.589C248.55 164.947 248.021 163.991 218.337 110.166C207.281 90.118 197.564 73.013 196.745 72.1569C195.429 70.7801 194.344 71.0675 187.424 74.6189C178.499 79.1992 178.536 79.0222 184.364 88.8162C186.239 91.9655 191.9 102.043 196.943 111.208C201.986 120.373 212.909 140.056 221.215 154.949C229.522 169.842 238.916 186.714 242.088 192.442C245.263 198.17 251.951 210.122 256.952 218.999C261.955 227.877 271.118 244.28 277.313 255.45C283.51 266.621 298.311 293.099 310.202 314.293C322.096 335.487 336.07 360.559 341.257 370.012C346.445 379.464 351.967 389.429 353.529 392.155L356.37 397.115L342.871 386.427C335.445 380.549 317.205 366.133 302.335 354.39C287.465 342.646 266.063 325.729 254.773 316.793C243.484 307.857 228.427 296.051 221.313 290.556C214.2 285.061 203.167 276.44 196.793 271.393C190.421 266.348 173.264 252.872 158.669 241.445C131.212 219.947 87.5726 185.477 84.3128 182.708C82.6236 181.273 82.2944 181.361 80.6864 183.66C79.7137 185.054 77.1808 188.078 75.0583 190.382C72.0902 193.604 71.4257 194.975 72.1818 196.322C72.7234 197.285 83.8483 206.395 96.902 216.566C109.96 226.739 128.631 241.432 138.396 249.22C148.163 257.006 168.374 272.93 183.31 284.603C198.247 296.278 219.399 312.912 230.314 321.571C263.593 347.968 279.575 360.572 300.296 376.764C311.21 385.294 325.547 396.548 332.154 401.774C338.759 406.998 349.451 415.426 355.914 420.5C362.376 425.574 367.508 429.881 367.316 430.071C367.127 430.26 361.605 428.504 355.046 426.171C348.489 423.837 336.541 419.814 328.499 417.236C320.454 414.655 309.879 411.181 304.997 409.516C300.113 407.848 284.368 402.774 270.006 398.237C241.059 389.091 103.709 344.439 54.906 328.309C37.7093 322.625 23.4788 318.134 23.283 318.33C22.8477 318.763 18.7859 332.477 18.4922 334.504C18.3381 335.562 30.7003 340.024 62.6691 350.455C87.0852 358.424 123.278 370.253 143.097 376.748C229.52 405.059 350.057 444.153 366.346 449.157C372.228 450.963 377.235 452.758 377.477 453.145C377.716 453.531 294.645 453.995 192.873 454.174L7.83388 454.499L7.53187 463.808L7.23193 473.117H297.644H588.059V466.868Z" fill="#FBFAF8"/>
<rect x="346" y="5.46234" width="22.8295" height="470.67" transform="rotate(-2.5698 346 5.46234)" fill="white"/>
<rect x="177" y="80.1495" width="22.8295" height="386.977" transform="rotate(-29.2341 177 80.1495)" fill="white"/>
<rect x="67.5732" y="193.831" width="22.8295" height="379.778" transform="rotate(-51.7982 67.5732 193.831)" fill="white"/>
<rect x="15" y="338.718" width="22.8295" height="379.778" transform="rotate(-72.0501 15 338.718)" fill="white"/>
<path d="M6 476L6 450L591 455.5L591 476L6 476Z" fill="white"/>
<path d="M394.291 442.411L394.204 442.543" stroke="white" stroke-width="25" stroke-linecap="round"/>
<path d="M401.178 449.101V450.044" stroke="white" stroke-width="25" stroke-linecap="round"/>
<path d="M403.122 436.599C403.115 435.925 402.179 433.172 396.184 426.123C392.482 421.77 390.769 418.709 389.758 416.627C386.079 409.05 385.436 407.138 384.162 402.501C383.618 400.521 383.063 397.568 382.187 393.504C380.209 384.334 378.888 378.649 378.435 377.478C377.19 374.254 377.365 372.384 377.232 370.565C377.17 369.72 376.518 368.226 376.101 366.787C375.683 365.344 377.221 370.84 378.009 373.657C379.95 380.589 383.006 387.612 383.664 389.031C385.399 392.77 387.84 398.744 390.632 404.889C392.719 409.484 394.615 413.489 397.268 417.773C400.378 422.796 403.545 425.215 404.908 426.762C407.483 429.684 412.033 435.279 417.081 440.667C419.162 442.888 420.305 442.899 421.617 443.048C423.291 443.238 427.559 445.637 438.308 450.424C445.537 453.644 456.838 457.363 464.168 459.575C471.499 461.786 474.635 462.096 476.031 462.313C477.427 462.53 476.987 462.646 467.524 462.805C458.06 462.964 439.585 463.162 429.607 463.215C418.708 463.272 415.541 462.296 411.108 460.563C402.304 457.121 400.811 450.318 400.8 449.586C400.76 446.919 407.733 448.796 418.142 444.493C420.313 443.595 420.771 443.516 421.009 443.266C422.103 442.116 421.874 440.349 422.343 439.567C423.301 437.97 419.621 435.918 417.055 433.632C415.847 432.75 414.983 432.142 414.343 431.698C414 431.499 413.618 431.352 413.225 431.2" stroke="white" stroke-width="25" stroke-linecap="round"/>
</svg>
